<svg width="50" height="66" viewBox="0 0 50 66" fill="none" xmlns="http://www.w3.org/2000/svg">
<circle cx="25" cy="24" r="16" fill="white"/>
<path d="M25 0C11.3521 0 0.25 11.1033 0.25 24.75C0.25 43.0091 23.0852 64.7109 24.0574 65.6267C24.3232 65.8751 24.6616 66 25 66C25.3384 66 25.6768 65.8751 25.9427 65.6267C26.9148 64.7109 49.75 43.0091 49.75 24.75C49.75 11.1033 38.6479 0 25 0ZM25 38.5C17.4186 38.5 11.25 32.3314 11.25 24.75C11.25 17.1686 17.4188 11 25 11C32.5812 11 38.75 17.1688 38.75 24.75C38.75 32.3312 32.5814 38.5 25 38.5Z" fill="#00C6C3"/>
</svg>
